<svg id="Layer_1" data-name="Layer 1" xmlns="http://www.w3.org/2000/svg" viewBox="0 0 272.61 133.74"><defs><style>.cls-1{fill:none;stroke:#000;stroke-miterlimit:10;}</style></defs><title>oval_star</title><line class="cls-1" x1="7.75" y1="133.24" x2="271.75" y2="132.74"/><line class="cls-1" x1="271.75" y1="86.74" x2="271.75" y2="132.74"/><line class="cls-1" x1="241.75" y1="87.24" x2="271.75" y2="86.74"/><line class="cls-1" x1="241.75" y1="66.24" x2="241.75" y2="87.24"/><line class="cls-1" x1="258.25" y1="74.24" x2="241.75" y2="66.24"/><line class="cls-1" x1="252.75" y1="47.24" x2="258.25" y2="74.24"/><line class="cls-1" x1="272.25" y1="27.24" x2="252.75" y2="47.24"/><line class="cls-1" x1="244.75" y1="24.24" x2="272.25" y2="27.24"/><line class="cls-1" x1="231.75" y1="0.24" x2="244.75" y2="24.24"/><line class="cls-1" x1="220.25" y1="25.24" x2="231.75" y2="0.24"/><line class="cls-1" x1="193.25" y1="29.74" x2="220.25" y2="25.24"/><line class="cls-1" x1="213.25" y1="48.74" x2="193.25" y2="29.74"/><line class="cls-1" x1="209.75" y1="75.74" x2="213.25" y2="48.74"/><line class="cls-1" x1="226.75" y1="66.24" x2="209.75" y2="75.74"/><line class="cls-1" x1="226.25" y1="86.74" x2="226.75" y2="66.24"/><line class="cls-1" x1="35" y1="87.74" x2="226.25" y2="86.74"/><line class="cls-1" x1="34.5" y1="67.12" x2="34.5" y2="87.24"/><line class="cls-1" x1="19" y1="86.74" x2="19.47" y2="67.51"/><path class="cls-1" d="M498.5,318.5" transform="translate(-464 -252.76)"/><path class="cls-1" d="M483.5,318.5" transform="translate(-464 -252.76)"/><line class="cls-1" x1="18.5" y1="86.74" x2="7.5" y2="86.74"/><line class="cls-1" x1="7.5" y1="132.74" x2="7.5" y2="86.74"/><path class="cls-1" d="M483.5,320.27c-11-3.94-19-16.89-19-32.27,0-18.5,11.64-33.5,26-33.5s26,15,26,33.5c0,14.9-7.55,27.54-18,31.88" transform="translate(-464 -252.76)"/></svg>