<svg id="Layer_1" data-name="Layer 1" xmlns="http://www.w3.org/2000/svg" viewBox="0 0 265.61 133.74"><defs><style>.cls-1{fill:none;stroke:#000;stroke-miterlimit:10;}</style></defs><title>rect_star</title><line class="cls-1" x1="39.75" y1="11.74" x2="39.75" y2="65.74"/><line class="cls-1" x1="0.75" y1="11.74" x2="39.75" y2="11.74"/><line class="cls-1" x1="0.75" y1="65.74" x2="0.75" y2="11.74"/><line class="cls-1" x1="0.75" y1="133.24" x2="264.75" y2="132.74"/><line class="cls-1" x1="264.75" y1="86.74" x2="264.75" y2="132.74"/><line class="cls-1" x1="234.75" y1="87.24" x2="264.75" y2="86.74"/><line class="cls-1" x1="234.75" y1="66.24" x2="234.75" y2="87.24"/><line class="cls-1" x1="251.25" y1="74.24" x2="234.75" y2="66.24"/><line class="cls-1" x1="245.75" y1="47.24" x2="251.25" y2="74.24"/><line class="cls-1" x1="265.25" y1="27.24" x2="245.75" y2="47.24"/><line class="cls-1" x1="237.75" y1="24.24" x2="265.25" y2="27.24"/><line class="cls-1" x1="224.75" y1="0.24" x2="237.75" y2="24.24"/><line class="cls-1" x1="213.25" y1="25.24" x2="224.75" y2="0.24"/><line class="cls-1" x1="186.25" y1="29.74" x2="213.25" y2="25.24"/><line class="cls-1" x1="206.25" y1="48.74" x2="186.25" y2="29.74"/><line class="cls-1" x1="202.75" y1="75.74" x2="206.25" y2="48.74"/><line class="cls-1" x1="219.75" y1="66.24" x2="202.75" y2="75.74"/><line class="cls-1" x1="219.25" y1="86.74" x2="219.75" y2="66.24"/><line class="cls-1" x1="28" y1="87.74" x2="219.25" y2="86.74"/><line class="cls-1" x1="27.5" y1="66.24" x2="27.5" y2="87.24"/><line class="cls-1" x1="12" y1="86.74" x2="12.5" y2="66.24"/><line class="cls-1" x1="39.5" y1="65.74" x2="27.5" y2="65.74"/><line class="cls-1" x1="12.5" y1="65.74" x2="0.5" y2="65.74"/><line class="cls-1" x1="11.5" y1="86.74" x2="0.5" y2="86.74"/><line class="cls-1" x1="0.5" y1="132.74" x2="0.5" y2="86.74"/></svg>